<?xml version="1.0" encoding="utf-8"?>
<!-- Generator: Adobe Illustrator 24.0.1, SVG Export Plug-In . SVG Version: 6.00 Build 0)  -->
<svg version="1.1" id="Layer_1" xmlns="http://www.w3.org/2000/svg" xmlns:xlink="http://www.w3.org/1999/xlink" x="0px" y="0px"
	 viewBox="0 0 512 512" style="enable-background:new 0 0 512 512;" xml:space="preserve">
<style type="text/css">
	.st0{fill:#FFFFFF;}
</style>
<g>
	<g>
		<path d="M125.4,266.6c-6.1,0-11.7,3.3-14.7,8.6L2.1,469c-2.9,5.2-2.9,11.6,0.2,16.8s8.6,8.3,14.5,8.3h478.3c6,0,11.5-3.2,14.5-8.3
			c3-5.2,3.1-11.5,0.2-16.8L401.3,275.3c-3-5.3-8.6-8.6-14.7-8.6 M223.3,331.3 M376.8,300.3l89.7,160H45.6v0l89.7-160"/>
	</g>
</g>
<polygon class="st0" points="361.8,312.2 143.3,307.5 116.7,252.2 396.5,252.2 "/>
<g>
	<path d="M401,168.7c-4-14.1-9.9-27.2-17.3-39l20.4-41.8c0,0,0,0,0,0L431,32.8c1.3-2.7,0.7-5.9-1.5-8c-2.2-2.1-5.5-2.4-8.1-0.9
		l-51.9,30l-41.2,23.8C295.1,59.6,255.2,53.9,216,65c-12.4,3.5-24.1,8.5-34.8,14.7c-0.3-0.3-0.6-0.5-1-0.7l-43.3-25L85,23.9
		c-2.6-1.5-5.9-1.1-8.1,0.9c-2.2,2-2.8,5.3-1.5,8l26.9,55.1l23.5,48.2c-18.7,33.5-24.8,74.1-13.6,113.9c6.1,21.5,16.5,40.9,31,57.6
		c2.5,2.8,6.8,3.1,9.6,0.7c2.8-2.5,3.1-6.8,0.7-9.6c-0.8-0.9-1.5-1.8-2.2-2.7c15.6-0.2,28.3-13,28.3-28.7
		c0-15.8-12.9-28.7-28.7-28.7c-10,0-18.8,5.1-24,12.9c-0.6-1.7-1.1-3.4-1.6-5.2C105,173.9,147.3,98.4,219.7,78.1
		C292,57.7,367.5,100,387.8,172.4c7.6,26.9,6.5,54.3-1.6,79c-5.1-7.8-14-12.9-23.9-12.9c-15.8,0-28.7,12.9-28.7,28.7
		c0,15.7,12.6,28.4,28.2,28.7c-17.1,20.8-40.4,36.8-68.2,44.6c-32,9-66,6-95.9-8.3c-3.4-1.6-7.5-0.2-9.1,3.2
		c-1.6,3.4-0.2,7.5,3.2,9.1c20.4,9.8,42.5,14.7,64.8,14.7c13.6,0,27.3-1.9,40.7-5.6C376.8,331.3,423.4,248.3,401,168.7z M151,252.2
		c8.3,0,15.1,6.8,15.1,15.1c0,8.3-6.8,15.1-15.1,15.1c-8.3,0-15.1-6.8-15.1-15.1C135.9,258.9,142.6,252.2,151,252.2z M122.4,61.3
		l-12,12L97.5,46.9L122.4,61.3z M134.4,122.5l-17.7-36.3l17.9-17.9l33.9,19.6C155.2,97.6,143.8,109.4,134.4,122.5z M408.9,46.9
		L396,73.3l-12-12L408.9,46.9z M341.6,85.8l30.3-17.5l17.9,17.9l-15,30.7C365.3,104.9,354,94.4,341.6,85.8z M347.2,267.2
		c0-8.3,6.8-15.1,15.1-15.1c8.3,0,15.1,6.8,15.1,15.1c0,8.3-6.8,15.1-15.1,15.1C353.9,282.3,347.2,275.6,347.2,267.2z"/>
	<path d="M178.8,321.3c-3.8-2.7-7.5-5.5-11-8.5c-2.9-2.4-7.2-2.1-9.6,0.7c-2.4,2.9-2.1,7.2,0.7,9.6c3.8,3.3,7.9,6.4,12.1,9.3
		c1.2,0.8,2.5,1.2,3.9,1.2c2.2,0,4.3-1,5.6-2.9C182.7,327.7,181.9,323.4,178.8,321.3z"/>
	<path d="M307,221.6c3.8,0,6.8-3.1,6.8-6.8c0-6,4.9-10.9,10.9-10.9c6,0,10.9,4.9,10.9,10.9c0,3.8,3,6.8,6.8,6.8s6.8-3.1,6.8-6.8
		c0-13.5-11-24.5-24.5-24.5s-24.5,11-24.5,24.5C300.2,218.5,303.3,221.6,307,221.6z"/>
	<path d="M181.6,190.2c-13.5,0-24.5,11-24.5,24.5c0,3.8,3,6.8,6.8,6.8c3.8,0,6.8-3.1,6.8-6.8c0-6,4.9-10.9,10.9-10.9
		c6,0,10.9,4.9,10.9,10.9c0,3.8,3,6.8,6.8,6.8c3.8,0,6.8-3.1,6.8-6.8C206.2,201.2,195.2,190.2,181.6,190.2z"/>
	<path d="M292.9,249.1c-3,1.2-5.8,1.9-8.4,2.2c0,0,0,0-0.1,0c-2.9,0.4-5.7,0.3-8.2-0.2c-0.1,0-0.1,0-0.2,0c-0.8-0.1-1.5-0.3-2.3-0.5
		c-0.1,0-0.1,0-0.2-0.1c-9.3-2.6-14.7-9.4-15-9.8c-0.2-0.3-0.4-0.5-0.7-0.7c-0.1-0.1-0.2-0.2-0.3-0.3c-0.2-0.2-0.4-0.3-0.6-0.4
		c-0.2-0.1-0.4-0.3-0.5-0.4c-0.2-0.1-0.5-0.2-0.7-0.3c-0.2-0.1-0.4-0.2-0.7-0.3c-0.2-0.1-0.5-0.1-0.8-0.1c-0.2,0-0.4-0.1-0.6-0.1
		c0,0,0,0,0,0h0c-0.2,0-0.3,0-0.5,0c-1.8,0-3.5,0.7-4.8,2c-0.6,0.6-1.3,1.2-1.9,1.8c-0.2,0.2-0.5,0.4-0.7,0.6
		c-0.4,0.3-0.8,0.6-1.1,0.9c-0.3,0.2-0.6,0.5-0.9,0.7c-0.2,0.2-0.5,0.3-0.7,0.5c-6.3,4.6-12.4,6.3-17.3,6.6c-0.3,0-0.7,0-1,0
		c-0.1,0-0.2,0-0.3,0c-2.2,0-4.2-0.2-6-0.6c-0.2,0-0.3,0-0.5-0.1c-2.4-0.5-3.9-1.2-4.1-1.3c-3.4-1.6-7.4-0.3-9.1,3.1
		c-1.7,3.4-0.3,7.5,3,9.1c0.2,0.1,1.4,0.7,3.3,1.3c2.1,11.7,7.4,36.3,18.1,55.4c4.6,8.3,13.1,13.4,22.6,13.7c0.2,0,0.5,0,0.7,0
		c9.4,0,17.9-4.7,22.9-12.7c9.9-15.7,15.5-34.8,16.5-55.5c2-0.5,4-1.2,6-2c3.5-1.4,5.2-5.4,3.8-8.9
		C300.4,249.4,296.4,247.7,292.9,249.1z M263.9,311.9c-2.6,4.1-7.1,6.3-11.7,6.3c-4.7-0.1-8.7-2.6-11-6.7
		c-7.4-13.3-12.7-31.6-15.7-46.7c7.8-0.2,17.5-2.7,27.3-10.6c3,2.6,6.9,5.2,11.4,7.2c4,1.8,8.7,3.2,14,3.5
		C277.2,282.8,272.3,298.5,263.9,311.9z"/>
</g>
</svg>
